<?xml version="1.0" encoding="UTF-8"?>
<svg width="24px" height="24px" viewBox="0 0 24 24" version="1.1" xmlns="http://www.w3.org/2000/svg" xmlns:xlink="http://www.w3.org/1999/xlink" fill="#5985E1">
<path d="M.992 6.1L3.888.996h5.785l-.968 1.81 1.91 3.366-1.91 3.32H2.98z"></path>
<path fill-opacity=".8" d="M11.56 7.855l-2.868-5.06.986-1.802 2.897 5.105z"></path>
<path fill-opacity=".6" d="M2.98 9.49h5.725l1.904-3.314.95 1.682-1.88 3.24-5.79.02z"></path>
<path d="M10.992 12.1l2.896-5.105h5.785l-.968 1.81 1.91 3.366-1.91 3.32H12.98z"></path>
<path fill-opacity=".8" d="M21.56 13.855l-2.868-5.06.986-1.802 2.897 5.105z"></path>
<path fill-opacity=".6" d="M12.98 15.49h5.725l1.904-3.314.95 1.682-1.88 3.24-5.79.02z"></path>
<path d="M.992 18.1l2.896-5.105h5.785l-.968 1.81 1.91 3.366-1.91 3.32H2.98z"></path>
<path fill-opacity=".8" d="M11.56 19.855l-2.868-5.06.986-1.802 2.897 5.105z"></path>
<path fill-opacity=".6" d="M2.98 21.49h5.725l1.904-3.314.95 1.682-1.88 3.24-5.79.02z"></path>
</svg>